<svg width="40" height="41" viewBox="0 0 40 41" fill="none" xmlns="http://www.w3.org/2000/svg">
<g clip-path="url(#clip0_887_2715)">
<path d="M20 9.38889L12.2222 0.5H0L15.5556 19.3889L28.3567 14.1111L20 9.38889Z" fill="#55ACEE"/>
<path d="M27.7778 0.5L20 9.38889L25.9889 17.5133L27.3522 15.8589L40 0.5H27.7778Z" fill="#3B88C3"/>
<path d="M25.8441 18.3067C25.933 18.0656 25.9897 17.8089 25.9897 17.5367C25.9897 16.9473 25.7556 16.3821 25.3388 15.9653C24.9221 15.5486 24.3568 15.3145 23.7675 15.3145H16.3597C15.7703 15.3145 15.2051 15.5486 14.7883 15.9653C14.3716 16.3821 14.1375 16.9473 14.1375 17.5367C14.1375 17.8089 14.193 18.0656 14.283 18.3067C10.663 20.3356 8.21191 24.2033 8.21191 28.6478C8.21191 35.1933 13.5175 40.5 20.0641 40.5C26.6097 40.5 31.9164 35.1933 31.9164 28.6478C31.9152 24.2033 29.4652 20.3356 25.8441 18.3067Z" fill="#FFAC33"/>
<path d="M20.0647 37.5375C24.9739 37.5375 28.9536 33.5579 28.9536 28.6487C28.9536 23.7395 24.9739 19.7598 20.0647 19.7598C15.1555 19.7598 11.1758 23.7395 11.1758 28.6487C11.1758 33.5579 15.1555 37.5375 20.0647 37.5375Z" fill="#FFD983"/>
<path d="M23.6424 34.537C23.4806 34.5366 23.3229 34.4858 23.1913 34.3914L20.0002 32.1036L16.8102 34.3914C16.678 34.4864 16.5193 34.5373 16.3565 34.5369C16.1938 34.5365 16.0353 34.4849 15.9036 34.3893C15.7718 34.2937 15.6735 34.1591 15.6227 34.0045C15.5718 33.8499 15.571 33.6832 15.6202 33.5281L16.8102 29.6881L13.6491 27.4603C13.5184 27.3636 13.4214 27.2282 13.3719 27.0733C13.3223 26.9185 13.3227 26.752 13.3729 26.5973C13.4231 26.4427 13.5207 26.3077 13.6518 26.2116C13.7829 26.1154 13.941 26.0629 14.1035 26.0614L18.0191 26.0559L19.2658 22.3114C19.3168 22.1566 19.4153 22.0218 19.5474 21.9263C19.6795 21.8307 19.8383 21.7793 20.0013 21.7793C20.1643 21.7793 20.3232 21.8307 20.4553 21.9263C20.5873 22.0218 20.6859 22.1566 20.7369 22.3114L21.9624 26.0559L25.898 26.0614C26.0609 26.0622 26.2195 26.1143 26.3511 26.2104C26.4826 26.3065 26.5806 26.4416 26.6309 26.5966C26.6813 26.7515 26.6815 26.9184 26.6315 27.0735C26.5815 27.2286 26.4838 27.3639 26.3524 27.4603L23.1902 29.6881L24.3802 33.5281C24.4176 33.6441 24.4269 33.7674 24.4075 33.8878C24.3881 34.0081 24.3405 34.1222 24.2685 34.2206C24.1965 34.319 24.1023 34.399 23.9935 34.454C23.8846 34.509 23.7644 34.5374 23.6424 34.537Z" fill="#FFAC33"/>
</g>
<defs>
<clipPath id="clip0_887_2715">
<rect width="40" height="40" fill="white" transform="translate(0 0.5)"/>
</clipPath>
</defs>
</svg>
