<svg width="40" height="41" viewBox="0 0 40 41" fill="none" xmlns="http://www.w3.org/2000/svg">
<path d="M23.7863 17.909L29.9997 3.83398L23.7863 17.909ZM15.5263 18.2207L8.33301 3.83398L15.5263 18.2207ZM21.268 17.2473L14.7247 3.83398L21.268 17.2473ZM23.933 3.83398L22.1997 8.00065L23.933 3.83398ZM9.99967 27.1673C9.99967 29.8195 11.0532 32.363 12.9286 34.2384C14.804 36.1137 17.3475 37.1673 19.9997 37.1673C22.6518 37.1673 25.1954 36.1137 27.0707 34.2384C28.9461 32.363 29.9997 29.8195 29.9997 27.1673C29.9997 24.5152 28.9461 21.9716 27.0707 20.0962C25.1954 18.2209 22.6518 17.1673 19.9997 17.1673C17.3475 17.1673 14.804 18.2209 12.9286 20.0962C11.0532 21.9716 9.99967 24.5152 9.99967 27.1673V27.1673Z" stroke="#DADADA" stroke-width="2.5" stroke-linecap="round" stroke-linejoin="round"/>
</svg>
