<svg width="16" height="15" viewBox="0 0 16 15" fill="none" xmlns="http://www.w3.org/2000/svg">
<path d="M0 0.429688V2.42969H2V14.4297H4V2.42969H10V11.4297C10 12.2253 10.3161 12.9884 10.8787 13.551C11.4413 14.1136 12.2044 14.4297 13 14.4297C13.7956 14.4297 14.5587 14.1136 15.1213 13.551C15.6839 12.9884 16 12.2253 16 11.4297H14C14 11.6949 13.8946 11.9493 13.7071 12.1368C13.5196 12.3243 13.2652 12.4297 13 12.4297C12.7348 12.4297 12.4804 12.3243 12.2929 12.1368C12.1054 11.9493 12 11.6949 12 11.4297V2.42969H14V0.429688" fill="#9E9E9E"/>
</svg>
