<svg width="24" height="24" viewBox="0 0 24 24" fill="none" xmlns="http://www.w3.org/2000/svg">
<path d="M11.978 9.98H13.468L13.106 11.566H11.59L11.978 9.98ZM4 4.5C4 3.83696 4.26339 3.20107 4.73223 2.73223C5.20107 2.26339 5.83696 2 6.5 2H18C18.3283 2 18.6534 2.06466 18.9567 2.1903C19.26 2.31594 19.5356 2.50009 19.7678 2.73223C19.9999 2.96438 20.1841 3.23998 20.3097 3.54329C20.4353 3.84661 20.5 4.1717 20.5 4.5V18.75C20.5 18.9489 20.421 19.1397 20.2803 19.2803C20.1397 19.421 19.9489 19.5 19.75 19.5H5.5C5.5 19.7652 5.60536 20.0196 5.79289 20.2071C5.98043 20.3946 6.23478 20.5 6.5 20.5H19.75C19.9489 20.5 20.1397 20.579 20.2803 20.7197C20.421 20.8603 20.5 21.0511 20.5 21.25C20.5 21.4489 20.421 21.6397 20.2803 21.7803C20.1397 21.921 19.9489 22 19.75 22H6.5C5.83696 22 5.20107 21.7366 4.73223 21.2678C4.26339 20.7989 4 20.163 4 19.5V4.5ZM11.024 7.57L10.801 8.48H9.73L9.628 8.487C9.44845 8.51165 9.28389 8.60048 9.16477 8.73707C9.04564 8.87366 8.98001 9.04876 8.98 9.23L8.987 9.332C9.01165 9.51155 9.10048 9.67611 9.23707 9.79523C9.37366 9.91436 9.54876 9.97999 9.73 9.98H10.433L10.045 11.566L9.249 11.567L9.147 11.574C8.96745 11.5986 8.80289 11.6875 8.68377 11.8241C8.56464 11.9607 8.49901 12.1358 8.499 12.317L8.506 12.419C8.53065 12.5986 8.61948 12.7631 8.75607 12.8822C8.89266 13.0014 9.06776 13.067 9.249 13.067H9.678L9.555 13.573L9.537 13.673C9.51803 13.8535 9.56513 14.0347 9.66958 14.1831C9.77402 14.3315 9.92872 14.437 10.105 14.48L10.205 14.498C10.3855 14.517 10.5667 14.4699 10.7151 14.3654C10.8635 14.261 10.969 14.1063 11.012 13.93L11.222 13.066H12.761L12.643 13.584L12.627 13.684C12.6106 13.8648 12.6603 14.0455 12.767 14.1924C12.8736 14.3393 13.03 14.4426 13.207 14.483L13.307 14.499C13.4878 14.5154 13.6685 14.4657 13.8154 14.359C13.9623 14.2524 14.0656 14.096 14.106 13.919L14.3 13.066L15.24 13.067L15.342 13.06C15.5217 13.0356 15.6865 12.9468 15.8059 12.8102C15.9252 12.6736 15.991 12.4984 15.991 12.317L15.984 12.215C15.9594 12.0354 15.8705 11.8709 15.7339 11.7518C15.5973 11.6326 15.4222 11.567 15.241 11.567H14.644L15.007 9.98H15.727L15.829 9.973C16.0086 9.94835 16.1731 9.85952 16.2922 9.72293C16.4114 9.58634 16.477 9.41124 16.477 9.23L16.47 9.129C16.4456 8.94926 16.3568 8.78447 16.2202 8.66514C16.0836 8.54582 15.9084 8.48004 15.727 8.48H15.351L15.481 7.916L15.497 7.816C15.5132 7.63534 15.4633 7.45494 15.3567 7.30822C15.25 7.1615 15.0938 7.05839 14.917 7.018L14.817 7.002C14.6363 6.98584 14.4559 7.03569 14.3092 7.14233C14.1625 7.24897 14.0594 7.40517 14.019 7.582L13.812 8.48H12.344L12.48 7.927L12.498 7.827C12.5188 7.63736 12.4665 7.44693 12.3518 7.29447C12.2371 7.14201 12.0687 7.03899 11.8807 7.00636C11.6927 6.97374 11.4994 7.01397 11.3401 7.11887C11.1807 7.22377 11.0673 7.38545 11.023 7.571L11.024 7.57Z" fill="#9E9E9E"/>
</svg>
