<svg width="20" height="20" viewBox="0 0 20 20" fill="none" xmlns="http://www.w3.org/2000/svg">
<path fill-rule="evenodd" clip-rule="evenodd" d="M1.81818 0.909091C1.81818 0.407014 1.41117 0 0.909091 0C0.407014 0 0 0.407014 0 0.909091V19.0909C0 19.593 0.407014 20 0.909091 20H19.0909C19.593 20 20 19.593 20 19.0909C20 18.5888 19.593 18.1818 19.0909 18.1818H1.81818V0.909091ZM19.2792 6.09737C19.6342 5.74235 19.6342 5.16674 19.2792 4.81172C18.9242 4.4567 18.3486 4.4567 17.9935 4.81172L11.3636 11.4416L8.3701 8.44808C8.01508 8.09306 7.43947 8.09306 7.08445 8.44808L2.99354 12.539C2.63852 12.894 2.63852 13.4696 2.99354 13.8246C3.34856 14.1797 3.92417 14.1797 4.27919 13.8246L7.72727 10.3766L10.7208 13.3701C11.0758 13.7251 11.6514 13.7251 12.0065 13.3701L19.2792 6.09737Z" fill="url(#paint0_linear_887_4012)"/>
<defs>
<linearGradient id="paint0_linear_887_4012" x1="0" y1="10" x2="20" y2="10" gradientUnits="userSpaceOnUse">
<stop stop-color="#5185D5"/>
<stop offset="1" stop-color="#6795E0"/>
</linearGradient>
</defs>
</svg>
