<svg width="21" height="21" viewBox="0 0 21 21" fill="none" xmlns="http://www.w3.org/2000/svg">
<path d="M6.67117 14.885L8.43217 14.377L19.0352 3.64705C19.1188 3.56134 19.1654 3.44618 19.1648 3.32643C19.1642 3.20668 19.1166 3.09196 19.0322 3.00705L18.3972 2.36505C18.3561 2.32288 18.3071 2.28931 18.253 2.2663C18.1988 2.24329 18.1406 2.2313 18.0818 2.23102C18.023 2.23074 17.9647 2.24218 17.9103 2.26468C17.8559 2.28717 17.8066 2.32027 17.7652 2.36205L7.19017 13.064L6.67017 14.884L6.67117 14.885ZM19.6542 1.09305L20.2892 1.73605C21.1652 2.62305 21.1732 4.05405 20.3052 4.93205L9.37917 15.99L5.61517 17.074C5.38537 17.1384 5.13943 17.1089 4.93133 16.9921C4.72323 16.8753 4.56997 16.6807 4.50517 16.451C4.45695 16.2859 4.45626 16.1105 4.50317 15.945L5.59817 12.105L16.4952 1.07605C16.7024 0.867404 16.9491 0.702107 17.2208 0.589798C17.4926 0.477489 17.784 0.420414 18.078 0.421903C18.3721 0.423393 18.6629 0.483416 18.9335 0.598472C19.2041 0.713529 19.4491 0.881315 19.6542 1.09205V1.09305ZM8.13517 2.24605C8.63117 2.24605 9.03317 2.65305 9.03317 3.15505C9.03396 3.27371 9.01135 3.39137 8.96664 3.5013C8.92193 3.61122 8.85598 3.71126 8.77258 3.79568C8.68918 3.8801 8.58996 3.94726 8.48059 3.9933C8.37122 4.03935 8.25384 4.06339 8.13517 4.06405H4.54317C3.55117 4.06405 2.74717 4.87805 2.74717 5.88105V16.787C2.74717 17.791 3.55117 18.605 4.54317 18.605H15.3192C16.3112 18.605 17.1162 17.791 17.1162 16.787V13.152C17.1162 12.65 17.5182 12.243 18.0142 12.243C18.5102 12.243 18.9122 12.65 18.9122 13.153V16.787C18.9122 18.795 17.3032 20.423 15.3192 20.423H4.54317C2.55917 20.423 0.951172 18.795 0.951172 16.787V5.88105C0.951172 3.87405 2.55917 2.24605 4.54317 2.24605H8.13517Z" fill="#9E9E9E"/>
</svg>
